<?xml version="1.0" standalone="no"?>
<!DOCTYPE svg PUBLIC "-//W3C//DTD SVG 20010904//EN"
 "http://www.w3.org/TR/2001/REC-SVG-20010904/DTD/svg10.dtd">
<svg version="1.0" xmlns="http://www.w3.org/2000/svg"
 width="700.000000pt" height="700.000000pt" viewBox="0 0 700.000000 700.000000"
 preserveAspectRatio="xMidYMid meet">
<metadata>
Created by potrace 1.14, written by Peter Selinger 2001-2017
</metadata>
<g transform="translate(0.000000,700.000000) scale(0.100000,-0.100000)"
fill="#000000" stroke="none">
<path d="M3285 5549 c-465 -48 -906 -259 -1240 -594 -806 -805 -806 -2105 0
-2910 474 -474 1143 -687 1805 -574 740 126 1358 654 1599 1366 309 912 -51
1910 -872 2420 -373 231 -848 338 -1292 292z m360 -620 c70 -15 201 -80 260
-129 153 -127 235 -303 235 -505 l0 -90 -92 -22 c-218 -52 -419 -198 -517
-375 -14 -26 -28 -48 -31 -48 -3 0 -16 20 -29 44 -34 65 -123 169 -189 222
-81 64 -240 139 -339 160 l-83 17 0 91 c0 159 52 306 145 415 166 194 393 272
640 220z m-721 -919 c234 -60 423 -255 471 -485 23 -108 21 -782 -1 -851 -15
-43 -51 -83 -288 -323 -149 -150 -285 -279 -303 -287 -24 -10 -39 -11 -60 -3
-15 5 -149 130 -297 277 -203 202 -274 279 -292 317 l-24 50 0 385 c0 430 4
460 66 587 42 85 133 188 216 244 60 41 163 85 233 99 76 15 199 11 279 -10z
m1523 -18 c45 -17 107 -47 137 -67 81 -54 177 -162 219 -247 63 -128 67 -158
67 -588 l0 -385 -24 -50 c-18 -38 -89 -115 -292 -317 -148 -147 -280 -271
-294 -276 -54 -19 -78 0 -361 285 -242 244 -278 284 -293 327 -23 69 -24 743
-1 851 48 230 233 422 467 485 110 30 265 23 375 -18z"/>
<path d="M3050 4371 c0 -51 40 -110 95 -138 36 -19 122 -21 155 -3 54 28 89
73 104 133 l6 27 -180 0 c-171 0 -180 -1 -180 -19z"/>
<path d="M3596 4363 c22 -92 89 -146 179 -146 55 0 98 18 132 55 24 26 43 69
43 99 0 18 -9 19 -180 19 l-180 0 6 -27z"/>
<path d="M2318 3294 c-3 -3 -2 -20 2 -39 41 -181 323 -177 347 5 l6 40 -175 0
c-96 0 -177 -2 -180 -6z"/>
<path d="M2865 3268 c27 -123 148 -182 260 -128 50 24 95 87 95 133 l0 27
-181 0 -181 0 7 -32z"/>
<path d="M2572 2910 c-43 -26 -71 -90 -72 -158 0 -59 15 -94 57 -134 43 -41
74 -48 214 -48 164 0 207 18 251 104 37 73 8 198 -56 237 -27 17 -52 19 -196
19 -148 0 -168 -2 -198 -20z"/>
<path d="M3780 3273 c0 -45 45 -109 93 -132 102 -49 216 -6 253 96 23 66 31
63 -166 63 l-180 0 0 -27z"/>
<path d="M4333 3260 c10 -80 84 -140 172 -140 55 0 116 29 143 67 22 31 43 98
34 107 -3 3 -84 6 -180 6 l-175 0 6 -40z"/>
<path d="M4043 2917 c-70 -39 -105 -165 -67 -240 45 -89 87 -107 253 -107 140
0 171 7 215 48 58 54 73 149 36 229 -33 75 -59 83 -250 83 -110 -1 -172 -5
-187 -13z"/>
</g>
</svg>
